HIERARCHY
ROOT Hips
{
	OFFSET 0.000000 0.000000 0.000000
	CHANNELS 6 Xposition Yposition Zposition Zrotation Yrotation Xrotation 
	JOINT LHipJoint
	{
		OFFSET 0.000000 0.000000 0.000000
		CHANNELS 3 Zrotation Yrotation Xrotation
		JOINT LeftUpLeg
		{
			OFFSET 1.363060 -1.794630 0.839290
			CHANNELS 3 Zrotation Yrotation Xrotation
			JOINT LeftLeg
			{
				OFFSET 2.448110 -6.726130 0.000000
				CHANNELS 3 Zrotation Yrotation Xrotation
				JOINT LeftFoot
				{
					OFFSET 2.562200 -7.039590 0.000000
					CHANNELS 3 Zrotation Yrotation Xrotation
					JOINT LeftToeBase
					{
						OFFSET 0.157640 -0.433110 2.322550
						CHANNELS 3 Zrotation Yrotation Xrotation
						End Site
						{
							OFFSET 0.000000 0.000000 0.000000
						}
					}
				}
			}
		}
	}
	JOINT RHipJoint
	{
		OFFSET 0.000000 0.000000 0.000000
		CHANNELS 3 Zrotation Yrotation Xrotation
		JOINT RightUpLeg
		{
			OFFSET -1.305520 -1.794630 0.839290
			CHANNELS 3 Zrotation Yrotation Xrotation
			JOINT RightLeg
			{
				OFFSET -2.542530 -6.985550 0.000000
				CHANNELS 3 Zrotation Yrotation Xrotation
				JOINT RightFoot
				{
					OFFSET -2.568260 -7.056230 0.000000
					CHANNELS 3 Zrotation Yrotation Xrotation
					JOINT RightToeBase
					{
						OFFSET -0.164730 -0.452590 2.363150
						CHANNELS 3 Zrotation Yrotation Xrotation
						End Site
						{
							OFFSET 0.000000 0.000000 0.000000
						}
					}
				}
			}
		}
	}
	JOINT LowerBack
	{
		OFFSET 0.000000 0.000000 0.000000
		CHANNELS 3 Zrotation Yrotation Xrotation
		JOINT Spine
		{
			OFFSET 0.028270 2.035590 -0.193380
			CHANNELS 3 Zrotation Yrotation Xrotation
			JOINT Spine1
			{
				OFFSET 0.056720 2.048850 -0.042750
				CHANNELS 3 Zrotation Yrotation Xrotation
				JOINT Neck
				{
					OFFSET 0.000000 0.000000 0.000000
					CHANNELS 3 Zrotation Yrotation Xrotation
					JOINT Neck1
					{
						OFFSET -0.054170 1.746240 0.172020
						CHANNELS 3 Zrotation Yrotation Xrotation
						JOINT Head
						{
							OFFSET 0.104070 1.761360 -0.123970
							CHANNELS 3 Zrotation Yrotation Xrotation
							End Site
							{
								OFFSET 0.000000 0.000000 0.000000
							}
						}
					}
				}
				JOINT LeftShoulder
				{
					OFFSET 0.000000 0.000000 0.000000
					CHANNELS 3 Zrotation Yrotation Xrotation
					JOINT LeftArm
					{
						OFFSET 3.362410 1.200890 -0.311210
						CHANNELS 3 Zrotation Yrotation Xrotation
						JOINT LeftForeArm
						{
							OFFSET 4.983000 -0.000000 -0.000000
							CHANNELS 3 Zrotation Yrotation Xrotation
							JOINT LeftHand
							{
								OFFSET 3.483560 -0.000000 -0.000000
								CHANNELS 3 Zrotation Yrotation Xrotation
								JOINT LeftFingerBase
								{
									OFFSET 0.000000 0.000000 0.000000
									CHANNELS 3 Zrotation Yrotation Xrotation
									JOINT LeftHandIndex1
									{
										OFFSET 0.715260 -0.000000 -0.000000
										CHANNELS 3 Zrotation Yrotation Xrotation
										End Site
										{
											OFFSET 0.000000 0.000000 0.000000
										}
									}
								}
								JOINT LThumb
								{
									OFFSET 0.000000 0.000000 0.000000
									CHANNELS 3 Zrotation Yrotation Xrotation
									End Site
									{
										OFFSET 0.000000 0.000000 0.000000
									}
								}
							}
						}
					}
				}
				JOINT RightShoulder
				{
					OFFSET 0.000000 0.000000 0.000000
					CHANNELS 3 Zrotation Yrotation Xrotation
					JOINT RightArm
					{
						OFFSET -3.136600 1.374050 -0.404650
						CHANNELS 3 Zrotation Yrotation Xrotation
						JOINT RightForeArm
						{
							OFFSET -5.241900 -0.000000 -0.000000
							CHANNELS 3 Zrotation Yrotation Xrotation
							JOINT RightHand
							{
								OFFSET -3.444170 -0.000000 -0.000000
								CHANNELS 3 Zrotation Yrotation Xrotation
								JOINT RightFingerBase
								{
									OFFSET 0.000000 0.000000 0.000000
									CHANNELS 3 Zrotation Yrotation Xrotation
									JOINT RightHandIndex1
									{
										OFFSET -0.622530 -0.000000 -0.000000
										CHANNELS 3 Zrotation Yrotation Xrotation
										End Site
										{
											OFFSET 0.000000 0.000000 0.000000
										}
									}
								}
								JOINT RThumb
								{
									OFFSET 0.000000 0.000000 0.000000
									CHANNELS 3 Zrotation Yrotation Xrotation
									End Site
									{
										OFFSET 0.000000 0.000000 0.000000
									}
								}
							}
						}
					}
				}
			}
		}
	}
}
MOTION
Frames: 10
Frame Time: 0.008333
10.722585 18.051682 8.625287 -4.661354 -10.393420 9.401090 -0.734760 -3.192070 -5.073345 -6.992099 0.198649 -35.311854 -1.740671 10.563990 21.901253 -1.222656 11.438867 21.255853 0.013800 -0.758900 -2.085800 1.940733 -2.310985 5.324544 16.217685 7.513299 4.366553 0.581028 -8.457059 27.751627 -2.297485 -3.468725 38.850620 -0.061200 1.596700 -4.392200 3.147841 6.595261 -0.843969 0.367031 8.326913 -3.770165 -4.126246 4.884752 -0.612917 -2.313853 -2.765465 -10.438162 8.058122 -4.232129 10.856774 2.471600 -1.636200 6.013600 1.881403 -6.778635 0.413020 -88.216576 27.962617 -14.055334 -0.984009 -2.622597 -0.286532 -1.666382 1.212837 19.029042 22.695322 -0.584172 -0.561500 -7.125000 0.000000 0.000000 -1.479400 28.633100 0.589700 -3.796767 8.680533 0.932180 73.293509 13.866709 30.455571 -50.669888 47.858802 -29.254410 1.899294 1.608871 -17.201875 -26.870693 -31.344306 16.342100 7.125000 0.000000 0.000000 3.418700 -65.243700 -1.673800
10.730980 18.053190 8.761517 -4.266519 -10.253042 9.197660 -0.755647 -3.169256 -4.954253 -7.499683 0.043045 -35.266449 -1.674197 10.775115 22.632253 -1.003415 10.692384 21.128745 0.026485 -1.011615 -2.781142 1.881010 -2.273368 5.179317 15.949489 7.383236 3.934194 0.051537 -9.009482 29.181494 -2.096297 -4.709070 39.284920 -0.071401 1.718800 -4.729227 2.673961 6.475753 -0.643228 0.340819 8.189669 -3.784483 -4.066923 4.804601 -0.773358 -2.448898 -2.794320 -10.406825 8.228937 -4.266723 10.786754 2.603501 -1.650437 6.008943 1.853278 -6.820835 0.410541 -88.245480 27.769569 -14.351637 -0.891474 -2.726065 -0.292711 -1.635522 1.225670 19.518695 22.566544 -0.603283 -0.568818 -7.125000 0.000000 0.000000 -1.594492 28.607465 0.636668 -3.853033 8.705221 0.920473 73.769422 13.209490 30.442885 -50.865125 47.985492 -29.366533 1.863223 1.580777 -17.340510 -26.142795 -30.920543 15.690577 7.125000 0.000000 0.000000 4.147882 -64.601535 -1.955875
10.739375 18.054698 8.897746 -3.871684 -10.112664 8.994231 -0.776535 -3.146443 -4.835162 -8.007267 -0.112558 -35.221044 -1.607723 10.986240 23.363253 -0.784174 9.945901 21.001637 0.039169 -1.264329 -3.476485 1.821287 -2.235751 5.034090 15.681294 7.253172 3.501835 -0.477955 -9.561905 30.611362 -1.895109 -5.949416 39.719220 -0.081602 1.840899 -5.066254 2.200080 6.356246 -0.442486 0.314607 8.052425 -3.798801 -4.007601 4.724451 -0.933800 -2.583943 -2.823174 -10.375489 8.399752 -4.301316 10.716733 2.735403 -1.664674 6.004286 1.825153 -6.863035 0.408062 -88.274384 27.576521 -14.647940 -0.798939 -2.829532 -0.298890 -1.604662 1.238503 20.008347 22.437765 -0.622395 -0.576136 -7.125000 0.000000 0.000000 -1.709584 28.581830 0.683636 -3.909299 8.729909 0.908766 74.245336 12.552271 30.430198 -51.060363 48.112183 -29.478656 1.827152 1.552684 -17.479144 -25.414897 -30.496780 15.039054 7.125000 0.000000 0.000000 4.877065 -63.959370 -2.237951
10.750055 18.063287 9.034013 -3.597425 -9.941558 8.790920 -0.795287 -3.125686 -4.727890 -8.374438 -0.290098 -35.097067 -1.545192 11.145203 23.947681 -0.624631 9.352011 20.827465 0.035260 -1.197606 -3.292778 1.764455 -2.174804 4.861615 15.573480 7.110700 3.044461 -1.047417 -10.111685 32.073386 -1.709846 -7.196436 40.105864 -0.075969 1.772572 -4.877715 1.932158 6.262219 -0.258058 0.288408 7.945987 -3.788610 -4.045666 4.657325 -0.963958 -2.603825 -2.865377 -10.370712 8.452437 -4.359696 10.611884 2.774818 -1.693818 5.956526 1.793470 -6.900362 0.419226 -88.190565 27.200170 -14.860297 -0.769513 -2.838308 -0.304784 -1.572498 1.281168 20.478191 22.465716 -0.908946 -0.722712 -7.125000 0.000000 0.000000 -1.693516 28.229452 0.690510 -3.949464 8.734692 0.906529 74.713085 11.949726 30.299623 -51.203621 48.243106 -29.617617 1.830577 1.541801 -17.565930 -25.893116 -30.666262 15.396715 7.125000 0.000000 0.000000 4.348990 -64.238597 -2.013699
10.761516 18.074296 9.170293 -3.364376 -9.759949 8.587649 -0.813310 -3.105631 -4.624657 -8.693619 -0.475136 -34.946236 -1.484009 11.286339 24.482014 -0.485491 8.810273 20.637207 0.025680 -1.021708 -2.808638 1.708612 -2.105884 4.679828 15.520481 6.963986 2.578537 -1.630541 -10.660561 33.546401 -1.530025 -8.445738 40.476219 -0.064926 1.639163 -4.509554 1.734626 6.176901 -0.079204 0.262215 7.850078 -3.770044 -4.117016 4.594651 -0.949590 -2.584347 -2.912142 -10.375013 8.464748 -4.426205 10.495131 2.782623 -1.728057 5.894035 1.760572 -6.936024 0.435054 -88.068221 26.761171 -15.043964 -0.761656 -2.814720 -0.310580 -1.539890 1.334027 20.941264 22.547232 -1.286900 -0.916883 -7.125000 0.000000 0.000000 -1.632622 27.765403 0.683679 -3.984127 8.732673 0.907529 75.178045 11.365867 30.128756 -51.329115 48.375476 -29.765751 1.847501 1.536800 -17.634995 -26.783553 -31.038499 16.099286 7.125000 0.000000 0.000000 3.391221 -64.832729 -1.616398
10.771695 18.088905 9.305143 -3.121878 -9.614660 8.393908 -0.841335 -3.080978 -4.515378 -9.022537 -0.621915 -34.758445 -1.432096 11.395249 24.933934 -0.384264 8.361913 20.384286 0.016296 -0.718965 -1.976162 1.651362 -2.035666 4.490402 15.465844 6.911095 2.122434 -2.229889 -11.197183 35.029809 -1.348815 -9.690786 40.758042 -0.055928 1.523334 -4.190064 1.518147 6.100050 0.094430 0.235205 7.764755 -3.747362 -4.188705 4.536838 -0.902621 -2.514415 -2.937169 -10.450728 8.430281 -4.466552 10.415336 2.748198 -1.746914 5.863788 1.732001 -6.974705 0.446608 -87.942961 26.254471 -15.233859 -0.738476 -2.811555 -0.314215 -1.500975 1.369833 21.349870 22.458336 -1.571971 -1.054245 -7.125000 0.000000 0.000000 -1.713019 27.419648 0.733027 -4.010876 8.734407 0.905929 75.635296 10.805173 29.987421 -51.409104 48.483570 -29.850145 1.856724 1.518567 -17.665273 -27.362866 -31.139835 16.487660 7.125000 0.000000 0.000000 2.687859 -65.060772 -1.305714
10.780543 18.107253 9.438507 -2.869567 -9.507085 8.210063 -0.879746 -3.051550 -4.399819 -9.361566 -0.728964 -34.532272 -1.389811 11.470694 25.300269 -0.322410 8.010524 20.066289 0.007115 -0.284498 -0.781955 1.592653 -1.964100 4.293044 15.409507 6.955634 1.676528 -2.846086 -11.721080 36.524010 -1.166164 -10.931416 40.947927 -0.049053 1.425761 -3.921116 1.281992 6.031993 0.262644 0.207348 7.690426 -3.720408 -4.260746 4.484071 -0.821797 -2.392089 -2.939620 -10.600604 8.347236 -4.479729 10.373921 2.669918 -1.749797 5.867026 1.707924 -7.016521 0.453725 -87.814673 25.677465 -15.430223 -0.699385 -2.829598 -0.315606 -1.455511 1.387928 21.701913 22.192475 -1.760586 -1.132614 -7.125000 0.000000 0.000000 -1.940143 27.196737 0.840712 -4.029407 8.740036 0.901629 76.084543 10.268535 29.876754 -51.441838 48.566453 -29.868349 1.857951 1.486593 -17.655271 -27.619089 -30.959850 16.549752 7.125000 0.000000 0.000000 2.248691 -64.908647 -1.084977
10.788573 18.123337 9.570651 -2.601768 -9.432660 8.023717 -0.926087 -3.016104 -4.274452 -9.729428 -0.792552 -34.286115 -1.357547 11.527112 25.623709 -0.255005 7.655532 19.771986 0.000885 0.101234 0.278257 1.530557 -1.902830 4.096330 15.320439 7.022648 1.254587 -3.498280 -12.245652 38.019418 -0.897129 -12.457671 40.960827 -0.056687 0.934443 -2.567682 1.012240 5.967098 0.439692 0.180710 7.618216 -3.696769 -4.306198 4.432804 -0.770391 -2.297134 -2.933572 -10.721096 8.281140 -4.478652 10.328641 2.607307 -1.746780 5.863799 1.685255 -7.061358 0.459774 -87.718582 25.106502 -15.652671 -0.656751 -2.851745 -0.317500 -1.413365 1.402557 22.016670 21.935598 -1.909396 -1.192040 -7.125000 0.000000 0.000000 -2.159307 27.020364 0.943314 -4.049362 8.750194 0.898118 76.533588 9.713273 29.793494 -51.473450 48.650470 -29.885479 1.857696 1.462670 -17.678041 -27.842220 -30.869299 16.634679 7.125000 0.000000 0.000000 1.902504 -64.847463 -0.913538
10.793952 18.132084 9.698837 -2.283788 -9.465641 7.829273 -0.998114 -2.961161 -4.117309 -10.190708 -0.715326 -33.975211 -1.357751 11.521882 25.808173 -0.169613 7.288870 19.554453 0.004211 0.329068 0.904322 1.457487 -1.874924 3.901701 15.125321 7.162481 0.910292 -4.267106 -12.772408 39.518736 -0.348210 -14.909353 40.400300 -0.111328 -0.832608 2.299492 0.633636 5.912449 0.645363 0.158023 7.552872 -3.683871 -4.265502 4.386394 -0.814301 -2.290858 -2.899987 -10.746384 8.269961 -4.431390 10.270839 2.595465 -1.724649 5.839628 1.667145 -7.115983 0.462358 -87.726805 24.555113 -15.959636 -0.602639 -2.887187 -0.321024 -1.381969 1.405953 22.210619 21.707835 -1.929234 -1.190088 -7.125000 0.000000 0.000000 -2.352679 26.994774 1.029444 -4.073930 8.775025 0.897164 76.981980 9.097671 29.799034 -51.501426 48.738161 -29.899126 1.852638 1.464834 -17.806989 -27.958135 -31.068513 16.793590 7.125000 0.000000 0.000000 1.857576 -65.080929 -0.901830
10.799331 18.140831 9.827023 -1.965808 -9.498622 7.634828 -1.070142 -2.906218 -3.960166 -10.651989 -0.638100 -33.664308 -1.357954 11.516652 25.992636 -0.084222 6.922208 19.336919 0.007537 0.556901 1.530387 1.384416 -1.847018 3.707072 14.930203 7.302314 0.565996 -5.035932 -13.299163 41.018054 0.200709 -17.361035 39.839773 -0.165969 -2.599659 7.166667 0.255032 5.857799 0.851033 0.135336 7.487527 -3.670973 -4.224806 4.339984 -0.858212 -2.284581 -2.866402 -10.771672 8.258782 -4.384128 10.213038 2.583623 -1.702518 5.815456 1.649036 -7.170608 0.464942 -87.735029 24.003725 -16.266601 -0.548528 -2.922629 -0.324549 -1.350574 1.409349 22.404567 21.480071 -1.949072 -1.188137 -7.125000 0.000000 0.000000 -2.546051 26.969183 1.115575 -4.098497 8.799856 0.896210 77.430373 8.482069 29.804573 -51.529402 48.825852 -29.912774 1.847579 1.466997 -17.935936 -28.074050 -31.267727 16.952502 7.125000 0.000000 0.000000 1.812648 -65.314395 -0.890121
